<svg width="47" height="47" viewBox="0 0 47 47" fill="none" xmlns="http://www.w3.org/2000/svg">
<g id="home-05">
<path id="Icon" d="M39.9133 21.2969L36.7188 18.1045V10.2812C36.7188 9.06953 35.7273 8.07812 34.5156 8.07812H32.3125C31.1008 8.07812 30.1094 9.06953 30.1094 10.2812V11.4996L25.7031 7.09773C25.1017 6.52933 24.5509 5.875 23.5 5.875C22.4491 5.875 21.8983 6.52933 21.2969 7.09773L7.08672 21.2969C6.39934 22.0129 5.875 22.535 5.875 23.5C5.875 24.7404 6.82675 25.7031 8.07812 25.7031H10.2812V38.9219C10.2812 40.1336 11.2727 41.125 12.4844 41.125H16.8906C18.1074 41.125 19.0938 40.1386 19.0938 38.9219V30.1094C19.0938 28.8977 20.0852 27.9062 21.2969 27.9062H25.7031C26.9148 27.9062 27.9062 28.8977 27.9062 30.1094V38.9219C27.9062 40.1386 27.7911 41.125 29.0078 41.125H34.5156C35.7273 41.125 36.7188 40.1336 36.7188 38.9219V25.7031H38.9219C40.1733 25.7031 41.125 24.7404 41.125 23.5C41.125 22.535 40.6007 22.0129 39.9133 21.2969Z" stroke="black" stroke-width="2" stroke-linejoin="round"/>
</g>
</svg>
